<svg width="128" height="133" viewBox="0 0 128 133" fill="none" xmlns="http://www.w3.org/2000/svg">
<path d="M48.7632 54.4878C46.7092 54.4878 44.6736 54.3472 42.77 53.7867C35.9143 51.7611 30.933 45.6985 29.366 38.8457C27.799 31.9617 29.5925 24.4235 34.4169 19.2094C38.8799 14.3881 44.168 13.3891 50.3815 13.3891C50.4456 13.3891 50.5552 13.3936 50.6959 13.3994C50.7712 13.4025 50.8555 13.406 50.9465 13.4093C51.206 13.4188 51.5173 13.4272 51.8229 13.4223C52.1279 13.4174 52.4293 13.3993 52.6682 13.3553C52.7875 13.3333 52.8935 13.3045 52.9773 13.2664C53.06 13.2289 53.1283 13.1791 53.1612 13.1107L53.1614 13.1102C53.167 13.0981 53.1686 13.0842 53.1649 13.0704C53.1614 13.0577 53.1544 13.0487 53.1488 13.0429C53.1382 13.0322 53.1247 13.0254 53.1144 13.021C53.0924 13.0115 53.0614 13.0033 53.0256 12.9957C52.9528 12.9804 52.8472 12.9654 52.7209 12.9509C52.4678 12.9218 52.1255 12.8941 51.7816 12.8702C51.0946 12.8224 50.3953 12.789 50.3815 12.789C49.8682 12.789 49.3542 12.7865 48.84 12.784C43.3106 12.7571 37.7651 12.7301 32.869 15.8126L32.869 15.8126C25.2393 20.6223 21.8262 30.2002 23.8071 38.8601C25.6395 46.9024 32.0144 53.365 40.256 54.6107C43.7751 55.1423 47.4493 55.0635 51.061 54.9861C52.3378 54.9588 53.6069 54.9316 54.8584 54.9316C54.9225 54.9316 55.0322 54.9361 55.1729 54.9419C55.2482 54.945 55.3325 54.9485 55.4234 54.9518C55.6829 54.9613 55.9943 54.9697 56.2998 54.9648C56.6049 54.9599 56.9063 54.9418 57.1452 54.8978C57.2645 54.8758 57.3705 54.847 57.4542 54.809C57.5314 54.7739 57.596 54.7282 57.631 54.6667L57.6384 54.6683C57.6432 54.6579 57.6451 54.6461 57.643 54.6342V54.6316L57.6425 54.6314C57.6423 54.6305 57.6421 54.6295 57.6418 54.6285C57.6384 54.6159 57.6314 54.6068 57.6257 54.6011C57.6151 54.5903 57.6016 54.5835 57.5913 54.5791C57.5693 54.5697 57.5383 54.5614 57.5025 54.5539C57.4297 54.5385 57.3241 54.5235 57.1978 54.509C56.9447 54.4799 56.6025 54.4523 56.2585 54.4283C55.5715 54.3805 54.8723 54.3472 54.8584 54.3472C53.8837 54.3472 52.8843 54.3816 51.8752 54.4164L51.8417 54.4175C50.8209 54.4527 49.7901 54.4878 48.7632 54.4878Z" fill="#191919" stroke="#191919" stroke-width="0.1"/>
<path d="M67.5187 96.4599V13.0498C67.5187 13.0226 67.5063 13.0002 67.4909 12.9834C67.4758 12.9669 67.456 12.9535 67.4345 12.9422C67.3914 12.9195 67.3314 12.8997 67.2594 12.882C67.1145 12.8463 66.9085 12.816 66.6609 12.7899C66.1649 12.7377 65.494 12.702 64.7925 12.6776C63.3891 12.6287 61.8589 12.6248 61.351 12.6248C61.0289 12.6248 60.3436 12.6542 59.7387 12.712C59.4364 12.7408 59.1524 12.7769 58.9434 12.8203C58.8393 12.8419 58.7511 12.8659 58.688 12.8927C58.6567 12.9061 58.6286 12.9213 58.6075 12.9395C58.5867 12.9573 58.5664 12.9836 58.5664 13.0186C58.5664 13.042 58.5785 13.0592 58.5895 13.0696C58.6002 13.0799 58.6133 13.0872 58.6255 13.0928C58.6501 13.104 58.6832 13.1132 58.7211 13.121C58.7979 13.1369 58.9064 13.15 59.0365 13.1608C59.2972 13.1826 59.6518 13.196 60.0285 13.2043C60.6769 13.2186 61.3939 13.2177 61.8177 13.2172C61.8656 13.2171 61.9096 13.2171 61.9495 13.2171V96.4599H60.179C60.1149 96.4599 60.0053 96.4554 59.8646 96.4496C59.7892 96.4465 59.705 96.443 59.614 96.4397C59.3545 96.4301 59.0432 96.4218 58.7377 96.4267C58.4326 96.4316 58.1312 96.4497 57.8923 96.4937C57.773 96.5156 57.667 96.5445 57.5832 96.5825C57.5005 96.6201 57.4323 96.6699 57.3994 96.7382H57.3994L57.3991 96.7388C57.3935 96.7508 57.3919 96.7648 57.3956 96.7786C57.3991 96.7912 57.4061 96.8003 57.4117 96.806C57.4223 96.8168 57.4358 96.8236 57.4461 96.828C57.4682 96.8374 57.4991 96.8457 57.5349 96.8532C57.6078 96.8686 57.7133 96.8836 57.8396 96.8981C58.0927 96.9272 58.435 96.9548 58.7789 96.9788C59.466 97.0266 60.1652 97.0599 60.179 97.0599H74.3599C75.3643 97.0599 76.3872 97.0804 77.4199 97.101C81.0799 97.1742 84.8609 97.2498 88.3647 96.4257L88.3532 96.3771L88.3647 96.4257C97.4338 94.2828 102.541 86.5283 103.402 78.2323C104.263 69.9369 100.88 61.0881 92.9557 56.7518L92.9541 56.7509L92.9401 56.744C92.9398 56.7438 92.9395 56.7437 92.9393 56.7435C90.1179 55.1998 87.0279 54.6013 83.8718 54.3881C81.6841 54.2404 79.4611 54.2778 77.2732 54.3146C76.3063 54.3309 75.3461 54.347 74.3989 54.347C74.3348 54.347 74.2252 54.3425 74.0845 54.3367C74.0091 54.3336 73.9249 54.3301 73.8339 54.3268C73.5745 54.3173 73.2631 54.3089 72.9576 54.3138C72.6525 54.3187 72.3511 54.3368 72.1122 54.3808C71.9929 54.4028 71.8869 54.4316 71.8031 54.4696C71.7205 54.5072 71.6522 54.557 71.6193 54.6253L71.619 54.6259C71.6134 54.6379 71.6118 54.6519 71.6156 54.6657C71.619 54.6783 71.626 54.6874 71.6317 54.6931C71.6422 54.7039 71.6557 54.7107 71.666 54.7151C71.6881 54.7246 71.719 54.7328 71.7549 54.7404C71.8277 54.7557 71.9333 54.7707 72.0595 54.7852C72.3127 54.8143 72.6549 54.8419 72.9989 54.8659C73.6859 54.9137 74.3851 54.9471 74.3989 54.9471C75.1846 54.9471 75.9847 54.9195 76.7882 54.8919C77.196 54.8779 77.6047 54.8638 78.0128 54.8533C79.2262 54.822 80.4366 54.8221 81.613 54.9468C86.2765 55.4451 90.6328 58.3736 93.4862 61.9911C99.543 69.6848 99.6522 81.1764 93.7902 89.0106C90.9599 92.7921 86.4866 95.9619 81.6756 96.4602C80.3936 96.5904 79.0585 96.5465 77.7358 96.503C77.0787 96.4814 76.4247 96.4599 75.7819 96.4599H67.5187Z" fill="#191919" stroke="#191919" stroke-width="0.1"/>
<path d="M121.413 123.461L123.64 118.129C123.96 117.348 124.12 116.914 124.12 116.828C124.12 116.438 123.686 116.234 122.819 116.219V115.68H126.194V116.219C125.671 116.242 125.288 116.383 125.046 116.641C124.804 116.891 124.503 117.449 124.143 118.316L119.866 128.641C119.46 129.625 119.1 130.293 118.788 130.645C118.475 131.004 118.132 131.184 117.757 131.184C117.249 131.184 116.995 130.953 116.995 130.492C116.995 129.961 117.401 129.512 118.214 129.145C118.69 128.934 119.007 128.754 119.163 128.605C119.327 128.457 119.487 128.188 119.643 127.797L120.557 125.512L116.948 117.777C116.628 117.098 116.362 116.668 116.151 116.488C115.94 116.309 115.581 116.219 115.073 116.219V115.68H119.479V116.219C118.706 116.242 118.319 116.402 118.319 116.699C118.319 116.816 118.472 117.199 118.776 117.848L121.413 123.461Z" fill="#191919"/>
<path d="M114.768 116.219H111.874V122.02C111.874 122.91 111.913 123.512 111.991 123.824C112.069 124.129 112.233 124.375 112.483 124.562C112.741 124.75 113.015 124.844 113.304 124.844C113.866 124.844 114.354 124.523 114.768 123.883L115.143 124.105C114.901 124.621 114.542 125.012 114.065 125.277C113.597 125.535 113.12 125.664 112.636 125.664C112.073 125.664 111.577 125.5 111.147 125.172C110.725 124.836 110.46 124.445 110.35 124C110.249 123.555 110.198 122.773 110.198 121.656V116.219H108.804V115.68C109.444 115.664 110.018 115.395 110.526 114.871C111.034 114.348 111.358 113.613 111.499 112.668H111.874V115.68H114.768V116.219Z" fill="#191919"/>
<path d="M106.097 115.68V121.973C106.097 123.02 106.112 123.676 106.143 123.941C106.175 124.207 106.288 124.406 106.483 124.539C106.686 124.672 107.046 124.738 107.561 124.738V125.277C106.374 125.293 105.507 125.418 104.96 125.652H104.819C104.569 125.223 104.436 124.48 104.421 123.426C103.944 124.168 103.397 124.727 102.78 125.102C102.171 125.477 101.495 125.664 100.753 125.664C100.112 125.664 99.5458 125.52 99.0536 125.23C98.5614 124.934 98.2216 124.574 98.0341 124.152C97.8544 123.73 97.7645 123.094 97.7645 122.242V118.973C97.7645 117.863 97.745 117.188 97.7059 116.945C97.6669 116.695 97.5419 116.512 97.3309 116.395C97.1278 116.277 96.7489 116.219 96.1942 116.219V115.68H99.452V122.336C99.452 122.992 99.4911 123.469 99.5692 123.766C99.6473 124.062 99.8466 124.324 100.167 124.551C100.487 124.77 100.858 124.879 101.28 124.879C101.882 124.879 102.456 124.684 103.003 124.293C103.55 123.895 103.921 123.477 104.116 123.039C104.319 122.594 104.421 121.961 104.421 121.141V118.973C104.421 117.926 104.409 117.289 104.386 117.062C104.362 116.836 104.261 116.641 104.081 116.477C103.909 116.305 103.546 116.219 102.991 116.219H102.745V115.68H106.097Z" fill="#191919"/>
<path d="M94.9872 123.52H95.4208C95.3505 124.855 94.6942 125.523 93.452 125.523C92.9208 125.523 92.4989 125.383 92.1864 125.102C91.8817 124.82 91.6825 124.402 91.5887 123.848C90.8075 124.402 90.0927 124.82 89.4442 125.102C88.8036 125.383 88.2294 125.523 87.7216 125.523C87.0731 125.523 86.5145 125.336 86.0458 124.961C85.577 124.586 85.3427 124.09 85.3427 123.473C85.3427 122.668 85.7333 121.965 86.5145 121.363C87.3036 120.762 88.3895 120.176 89.7723 119.605L91.5887 118.867V118.398C91.5887 117.734 91.5458 117.254 91.4598 116.957C91.3739 116.66 91.1512 116.395 90.7919 116.16C90.4325 115.926 89.9598 115.809 89.3739 115.809C88.202 115.809 87.5497 116.199 87.4169 116.98C87.2919 117.777 86.9637 118.176 86.4325 118.176C85.9559 118.176 85.7177 117.949 85.7177 117.496C85.7177 117.051 86.0341 116.574 86.6669 116.066C87.2997 115.551 88.2841 115.293 89.62 115.293C90.6122 115.293 91.3817 115.449 91.9286 115.762C92.4755 116.074 92.8348 116.43 93.0067 116.828C93.1864 117.227 93.2762 117.836 93.2762 118.656V122.535C93.2762 123.441 93.3231 124.023 93.4169 124.281C93.5106 124.539 93.7137 124.668 94.0262 124.668C94.5419 124.668 94.8622 124.285 94.9872 123.52ZM91.5887 119.418L90.3114 119.934C88.2958 120.754 87.288 121.785 87.288 123.027C87.288 123.52 87.4169 123.918 87.6747 124.223C87.9325 124.52 88.2684 124.668 88.6825 124.668C89.0497 124.668 89.4755 124.547 89.9598 124.305C90.4442 124.062 90.9872 123.699 91.5887 123.215V119.418Z" fill="#191919"/>
<path d="M83.5028 118.926H76.8114C76.7802 119.387 76.7645 119.73 76.7645 119.957C76.7645 121.645 77.0262 122.914 77.5497 123.766C78.0809 124.609 78.87 125.031 79.9169 125.031C81.3387 125.031 82.3466 124.395 82.9403 123.121H83.5028C83.2528 123.918 82.7567 124.543 82.0145 124.996C81.2723 125.441 80.4637 125.664 79.5887 125.664C78.7762 125.664 78.0067 125.461 77.2802 125.055C76.5614 124.641 75.9716 124.059 75.5106 123.309C75.0497 122.559 74.8192 121.648 74.8192 120.578C74.8192 119.062 75.2645 117.805 76.1552 116.805C77.0458 115.797 78.1591 115.293 79.495 115.293C80.7528 115.293 81.7255 115.676 82.413 116.441C83.1005 117.207 83.4637 118.035 83.5028 118.926ZM81.452 118.457C81.4755 118.277 81.4872 118.117 81.4872 117.977C81.4872 117.289 81.2841 116.758 80.8778 116.383C80.4794 116 79.9872 115.809 79.4012 115.809C77.9794 115.809 77.1317 116.691 76.8583 118.457H81.452Z" fill="#191919"/>
<path d="M67.5067 116.723C69.3114 116.855 70.6512 117.305 71.5262 118.07C72.4012 118.836 72.8387 119.793 72.8387 120.941C72.8387 121.941 72.5419 122.805 71.9481 123.531C71.3544 124.25 70.5927 124.723 69.663 124.949C68.7411 125.168 67.5028 125.277 65.9481 125.277H59.7137V124.738H60.3231C61.0028 124.738 61.4716 124.652 61.7294 124.48C61.995 124.309 62.163 124.043 62.2333 123.684C62.3036 123.316 62.3387 122.469 62.3387 121.141V113.406C62.3387 112.117 62.2997 111.285 62.2216 110.91C62.1512 110.535 61.995 110.277 61.7528 110.137C61.5184 109.996 60.9989 109.926 60.1942 109.926H59.8895V109.387L62.5028 109.316L65.4794 109.223C69.8231 109.223 71.995 110.473 71.995 112.973C71.995 114.004 71.62 114.832 70.87 115.457C70.1278 116.082 69.0067 116.504 67.5067 116.723ZM64.6356 116.5C64.8309 116.508 64.995 116.512 65.1278 116.512C66.8153 116.512 67.9677 116.246 68.5848 115.715C69.202 115.184 69.5106 114.324 69.5106 113.137C69.5106 112.309 69.3895 111.668 69.1473 111.215C68.9052 110.762 68.5419 110.414 68.0575 110.172C67.5731 109.922 66.745 109.797 65.5731 109.797C65.2684 109.797 64.9559 109.809 64.6356 109.832V116.5ZM64.6356 117.074V120.613C64.6356 122.121 64.663 123.078 64.7177 123.484C64.7723 123.891 64.9169 124.199 65.1512 124.41C65.3934 124.621 65.8661 124.727 66.5692 124.727C67.8192 124.727 68.7567 124.406 69.3817 123.766C70.0067 123.125 70.3192 122.164 70.3192 120.883C70.3192 119.57 69.9637 118.605 69.2528 117.988C68.5497 117.363 67.3075 117.051 65.5262 117.051C65.245 117.051 64.9481 117.059 64.6356 117.074Z" fill="#191919"/>
<path d="M52.4716 123.52H52.9052C52.8348 124.855 52.1786 125.523 50.9364 125.523C50.4052 125.523 49.9833 125.383 49.6708 125.102C49.3661 124.82 49.1669 124.402 49.0731 123.848C48.2919 124.402 47.577 124.82 46.9286 125.102C46.288 125.383 45.7137 125.523 45.2059 125.523C44.5575 125.523 43.9989 125.336 43.5302 124.961C43.0614 124.586 42.827 124.09 42.827 123.473C42.827 122.668 43.2177 121.965 43.9989 121.363C44.788 120.762 45.8739 120.176 47.2567 119.605L49.0731 118.867V118.398C49.0731 117.734 49.0302 117.254 48.9442 116.957C48.8583 116.66 48.6356 116.395 48.2762 116.16C47.9169 115.926 47.4442 115.809 46.8583 115.809C45.6864 115.809 45.0341 116.199 44.9012 116.98C44.7762 117.777 44.4481 118.176 43.9169 118.176C43.4403 118.176 43.202 117.949 43.202 117.496C43.202 117.051 43.5184 116.574 44.1512 116.066C44.7841 115.551 45.7684 115.293 47.1044 115.293C48.0966 115.293 48.8661 115.449 49.413 115.762C49.9598 116.074 50.3192 116.43 50.4911 116.828C50.6708 117.227 50.7606 117.836 50.7606 118.656V122.535C50.7606 123.441 50.8075 124.023 50.9012 124.281C50.995 124.539 51.1981 124.668 51.5106 124.668C52.0262 124.668 52.3466 124.285 52.4716 123.52ZM49.0731 119.418L47.7958 119.934C45.7802 120.754 44.7723 121.785 44.7723 123.027C44.7723 123.52 44.9012 123.918 45.1591 124.223C45.4169 124.52 45.7528 124.668 46.1669 124.668C46.5341 124.668 46.9598 124.547 47.4442 124.305C47.9286 124.062 48.4716 123.699 49.0731 123.215V119.418Z" fill="#191919"/>
<path d="M39.8153 109.164V121.984C39.8153 123.008 39.827 123.652 39.8505 123.918C39.8817 124.184 39.995 124.387 40.1903 124.527C40.3856 124.668 40.7333 124.738 41.2333 124.738H41.5145V125.277H36.3817V124.738H36.7098C37.1786 124.738 37.5106 124.676 37.7059 124.551C37.9091 124.418 38.0302 124.234 38.0692 124C38.1083 123.766 38.1278 123.094 38.1278 121.984V112.492C38.1278 111.484 38.038 110.852 37.8583 110.594C37.6786 110.328 37.2411 110.195 36.5458 110.195V109.656C37.0223 109.656 37.5809 109.602 38.2216 109.492C38.87 109.383 39.3153 109.273 39.5575 109.164H39.8153Z" fill="#191919"/>
<path d="M31.8583 117.742C32.1239 117.047 32.5536 116.465 33.1473 115.996C33.7489 115.527 34.3348 115.293 34.9052 115.293C35.4208 115.293 35.827 115.453 36.1239 115.773C36.4208 116.094 36.5692 116.422 36.5692 116.758C36.5692 116.984 36.4911 117.18 36.3348 117.344C36.1864 117.508 36.0028 117.59 35.7841 117.59C35.3934 117.59 35.0966 117.301 34.8934 116.723C34.7528 116.332 34.5419 116.137 34.2606 116.137C33.9247 116.137 33.5223 116.367 33.0536 116.828C32.5848 117.281 32.2841 117.754 32.1512 118.246C32.0184 118.738 31.952 119.414 31.952 120.273V121.984C31.952 123.008 31.9637 123.652 31.9872 123.918C32.0184 124.184 32.1317 124.387 32.327 124.527C32.5223 124.668 32.87 124.738 33.37 124.738H33.6981V125.277H28.6005V124.738H28.8466C29.3153 124.738 29.6473 124.676 29.8427 124.551C30.0458 124.418 30.1669 124.234 30.2059 124C30.245 123.766 30.2645 123.094 30.2645 121.984V119.277C30.2645 118.246 30.2489 117.602 30.2177 117.344C30.1942 117.078 30.0848 116.875 29.8895 116.734C29.6942 116.586 29.3466 116.512 28.8466 116.512H28.6005V115.984C29.3348 115.898 30.2958 115.668 31.4833 115.293C31.7098 115.91 31.8348 116.727 31.8583 117.742Z" fill="#191919"/>
<path d="M27.1825 123.52H27.6161C27.5458 124.855 26.8895 125.523 25.6473 125.523C25.1161 125.523 24.6942 125.383 24.3817 125.102C24.077 124.82 23.8778 124.402 23.7841 123.848C23.0028 124.402 22.288 124.82 21.6395 125.102C20.9989 125.383 20.4247 125.523 19.9169 125.523C19.2684 125.523 18.7098 125.336 18.2411 124.961C17.7723 124.586 17.538 124.09 17.538 123.473C17.538 122.668 17.9286 121.965 18.7098 121.363C19.4989 120.762 20.5848 120.176 21.9677 119.605L23.7841 118.867V118.398C23.7841 117.734 23.7411 117.254 23.6552 116.957C23.5692 116.66 23.3466 116.395 22.9872 116.16C22.6278 115.926 22.1552 115.809 21.5692 115.809C20.3973 115.809 19.745 116.199 19.6122 116.98C19.4872 117.777 19.1591 118.176 18.6278 118.176C18.1512 118.176 17.913 117.949 17.913 117.496C17.913 117.051 18.2294 116.574 18.8622 116.066C19.495 115.551 20.4794 115.293 21.8153 115.293C22.8075 115.293 23.577 115.449 24.1239 115.762C24.6708 116.074 25.0302 116.43 25.202 116.828C25.3817 117.227 25.4716 117.836 25.4716 118.656V122.535C25.4716 123.441 25.5184 124.023 25.6122 124.281C25.7059 124.539 25.9091 124.668 26.2216 124.668C26.7372 124.668 27.0575 124.285 27.1825 123.52ZM23.7841 119.418L22.5067 119.934C20.4911 120.754 19.4833 121.785 19.4833 123.027C19.4833 123.52 19.6122 123.918 19.87 124.223C20.1278 124.52 20.4637 124.668 20.8778 124.668C21.245 124.668 21.6708 124.547 22.1552 124.305C22.6395 124.062 23.1825 123.699 23.7841 123.215V119.418Z" fill="#191919"/>
<path d="M14.5262 119.312H15.0302V124.879H14.5262C14.3856 124.246 14.1317 123.688 13.7645 123.203C12.3661 124.781 10.5809 125.57 8.40906 125.57C6.11218 125.57 4.23328 124.844 2.77234 123.391C1.31921 121.938 0.592651 120.016 0.592651 117.625C0.592651 116.055 0.928589 114.578 1.60046 113.195C2.27234 111.805 3.20984 110.773 4.41296 110.102C5.61609 109.43 6.9364 109.094 8.3739 109.094C9.5614 109.094 10.6356 109.34 11.5966 109.832C12.5653 110.316 13.288 110.855 13.7645 111.449C14.1005 110.785 14.3036 110.098 14.3739 109.387H14.8895L15.0302 115.41H14.5262C14.1747 113.27 13.4559 111.781 12.37 110.945C11.2919 110.109 10.0731 109.691 8.71375 109.691C7.04968 109.691 5.72546 110.367 4.74109 111.719C3.76453 113.07 3.27625 115.004 3.27625 117.52C3.27625 119.902 3.8114 121.73 4.88171 123.004C5.95203 124.27 7.28406 124.902 8.87781 124.902C9.72937 124.902 10.6005 124.695 11.4911 124.281C12.3817 123.867 13.0848 123.168 13.6005 122.184C14.1239 121.191 14.4325 120.234 14.5262 119.312Z" fill="#191919"/>
</svg>
