<svg width="95" height="89" viewBox="0 0 95 89" fill="none" xmlns="http://www.w3.org/2000/svg">
<path d="M36.5867 31.3002C35.0547 31.3002 33.5365 31.1953 32.1167 30.7773C27.0035 29.2665 23.2882 24.7448 22.1195 19.6337C20.9507 14.4993 22.2884 8.87708 25.8866 4.98821C29.2153 1.39227 33.1593 0.647135 37.7937 0.647135C37.8415 0.647135 37.9232 0.650502 38.0281 0.654825C38.0843 0.657141 38.1472 0.659731 38.215 0.662224C38.4086 0.669335 38.6408 0.675554 38.8687 0.671896C39.0962 0.668244 39.321 0.654733 39.4992 0.621934C39.5882 0.605551 39.6672 0.584063 39.7297 0.55568C39.7914 0.527671 39.8423 0.490508 39.8668 0.439546L39.867 0.439138C39.8712 0.430155 39.8724 0.419737 39.8696 0.409449C39.867 0.400014 39.8618 0.393265 39.8576 0.388984C39.8497 0.380959 39.8396 0.375899 39.832 0.372602C39.8155 0.365546 39.7924 0.3594 39.7657 0.353768C39.7114 0.342318 39.6327 0.331121 39.5385 0.320306C39.3497 0.298627 39.0944 0.278003 38.8379 0.260149C38.3255 0.224484 37.804 0.1996 37.7937 0.1996C37.4108 0.1996 37.0274 0.197735 36.644 0.19587C32.5199 0.175807 28.3838 0.155687 24.7322 2.45469L24.7322 2.4547C19.0416 6.04198 16.496 13.1856 17.9734 19.6444C19.3401 25.6427 24.0947 30.4628 30.2417 31.3918C32.8663 31.7883 35.6067 31.7296 38.3004 31.6719C39.2528 31.6515 40.1993 31.6312 41.1327 31.6312C41.1805 31.6312 41.2623 31.6346 41.3672 31.6389C41.4234 31.6412 41.4863 31.6438 41.5541 31.6463C41.7476 31.6534 41.9799 31.6596 42.2077 31.6559C42.4353 31.6523 42.6601 31.6388 42.8382 31.606C42.9272 31.5896 43.0063 31.5681 43.0688 31.5397C43.1263 31.5136 43.1745 31.4795 43.2006 31.4336L43.2061 31.4348C43.2097 31.4271 43.2111 31.4183 43.2096 31.4094V31.4074L43.2092 31.4073C43.209 31.4066 43.2089 31.4059 43.2087 31.4051C43.2061 31.3957 43.2009 31.389 43.1967 31.3847C43.1888 31.3767 43.1787 31.3716 43.171 31.3683C43.1546 31.3612 43.1315 31.3551 43.1048 31.3495C43.0505 31.338 42.9717 31.3268 42.8775 31.316C42.6887 31.2943 42.4335 31.2737 42.177 31.2558C41.6645 31.2202 41.143 31.1953 41.1327 31.1953C40.4058 31.1953 39.6604 31.221 38.9078 31.2469L38.8827 31.2478C38.1213 31.274 37.3526 31.3002 36.5867 31.3002Z" fill="#191919" stroke="#191919" stroke-width="0.074584"/>
<path d="M61.087 31.6424C60.2096 31.5494 59.3069 31.5493 58.4019 31.5726C58.0975 31.5805 57.7927 31.591 57.4885 31.6014C56.8892 31.622 56.2925 31.6426 55.7065 31.6426C55.6962 31.6426 55.1747 31.6177 54.6623 31.582C54.4058 31.5642 54.1505 31.5435 53.9617 31.5219C53.8675 31.5111 53.7888 31.4999 53.7344 31.4884C53.7077 31.4828 53.6846 31.4766 53.6682 31.4696C53.6605 31.4663 53.6505 31.4612 53.6426 31.4532C53.6383 31.4489 53.6331 31.4422 53.6306 31.4327C53.6278 31.4224 53.6289 31.412 53.6331 31.403L53.6333 31.4026C53.6579 31.3517 53.7088 31.3145 53.7705 31.2865C53.8329 31.2581 53.912 31.2366 54.001 31.2202C54.1792 31.1874 54.4039 31.1739 54.6315 31.1703C54.8594 31.1666 55.0916 31.1728 55.2851 31.18C55.353 31.1824 55.4158 31.185 55.472 31.1873C55.5769 31.1917 55.6587 31.195 55.7065 31.195C56.413 31.195 57.1291 31.183 57.8503 31.1709C59.4821 31.1434 61.14 31.1155 62.7718 31.2257C65.1257 31.3847 67.4304 31.8311 69.5347 32.9825C69.5348 32.9826 69.535 32.9827 69.5352 32.9828L69.5457 32.988L69.5469 32.9886C75.4572 36.2228 77.9805 42.8226 77.3383 49.0096C76.6961 55.1971 72.8868 60.9808 66.1227 62.579L66.1227 62.579C63.5095 63.1936 60.6894 63.1372 57.9596 63.0827C57.1895 63.0673 56.4265 63.052 55.6774 63.052H45.1007C45.0904 63.052 44.5689 63.0271 44.0565 62.9915C43.8 62.9736 43.5447 62.953 43.3559 62.9313C43.2617 62.9205 43.183 62.9093 43.1287 62.8979C43.1019 62.8922 43.0789 62.8861 43.0624 62.879C43.0547 62.8757 43.0447 62.8707 43.0368 62.8626C43.0326 62.8584 43.0274 62.8516 43.0248 62.8422C43.022 62.8319 43.0232 62.8215 43.0274 62.8125L43.0275 62.8121H43.0275C43.0521 62.7611 43.103 62.7239 43.1647 62.6959C43.2272 62.6676 43.3062 62.6461 43.3952 62.6297C43.5734 62.5969 43.7982 62.5834 44.0257 62.5797C44.2536 62.5761 44.4858 62.5823 44.6793 62.5894C44.7472 62.5919 44.8101 62.5945 44.8663 62.5968C44.9712 62.6011 45.0529 62.6045 45.1007 62.6045H46.4212V0.518688C46.3915 0.518709 46.3586 0.51875 46.3229 0.518794C46.0069 0.519189 45.472 0.519857 44.9884 0.509195C44.7075 0.503 44.443 0.492966 44.2486 0.476751C44.1515 0.468663 44.0706 0.458936 44.0134 0.447069C43.9851 0.441202 43.9604 0.434387 43.942 0.426005C43.9329 0.421857 43.9232 0.416362 43.9152 0.408745C43.907 0.400951 43.898 0.388151 43.898 0.370661C43.898 0.344579 43.9131 0.324925 43.9286 0.311641C43.9443 0.298135 43.9653 0.286752 43.9887 0.276809C44.0358 0.256786 44.1015 0.23892 44.1792 0.222792C44.3351 0.19041 44.5468 0.163489 44.7723 0.141964C45.2235 0.0988898 45.7346 0.0769658 45.9748 0.0769658C46.3537 0.0769658 47.4949 0.0798784 48.5416 0.116323C49.0648 0.13454 49.5652 0.161161 49.9351 0.200091C50.1198 0.21953 50.2735 0.24218 50.3816 0.268778C50.4353 0.282002 50.48 0.296732 50.5121 0.313676C50.5282 0.322137 50.543 0.332147 50.5542 0.344392C50.5657 0.356943 50.5749 0.373651 50.5749 0.393971V62.6045H56.7379C57.2174 62.6045 57.7052 62.6205 58.1953 62.6367C59.1817 62.6691 60.1776 62.7019 61.1338 62.6047M61.087 31.6424C61.087 31.6424 61.087 31.6424 61.087 31.6424L61.091 31.6053L61.087 31.6424ZM61.087 31.6424C64.5653 32.014 67.8143 34.1982 69.9426 36.8963M69.9426 36.8963C74.4599 42.6345 74.5414 51.2054 70.1693 57.0485C68.0583 59.8689 64.722 62.2331 61.1338 62.6047M69.9426 36.8963L69.9719 36.8732L69.9426 36.8963C69.9426 36.8963 69.9426 36.8963 69.9426 36.8963ZM61.1338 62.6047C61.1338 62.6047 61.1338 62.6047 61.1338 62.6047L61.1376 62.6418L61.1338 62.6047Z" fill="#191919" stroke="#191919" stroke-width="0.074584"/>
<path d="M90.772 82.743L92.4326 78.7662C92.6715 78.1835 92.791 77.8601 92.791 77.796C92.791 77.5047 92.4676 77.3532 91.8208 77.3415V76.9395H94.338V77.3415C93.9476 77.359 93.6621 77.4639 93.4815 77.6562C93.3008 77.8426 93.0765 78.2592 92.8085 78.906L89.6182 86.6062C89.3152 87.3404 89.0472 87.8386 88.8141 88.1008C88.5811 88.3689 88.3247 88.5029 88.045 88.5029C87.6662 88.5029 87.4769 88.331 87.4769 87.9872C87.4769 87.591 87.7799 87.2559 88.3859 86.9821C88.7413 86.8247 88.9773 86.6907 89.0938 86.58C89.2162 86.4693 89.3356 86.2683 89.4522 85.9769L90.1339 84.2726L87.4419 78.504C87.203 77.997 87.0049 77.6766 86.8476 77.5425C86.6902 77.4085 86.4222 77.3415 86.0435 77.3415V76.9395H89.3298V77.3415C88.753 77.359 88.4645 77.4784 88.4645 77.6999C88.4645 77.7873 88.5781 78.0728 88.8054 78.5564L90.772 82.743Z" fill="#191919"/>
<path d="M85.8155 77.3417H83.6567V81.6681C83.6567 82.3324 83.6858 82.7811 83.7441 83.0141C83.8023 83.2414 83.9247 83.4249 84.1112 83.5648C84.3034 83.7046 84.5074 83.7745 84.723 83.7745C85.1425 83.7745 85.5067 83.5356 85.8155 83.0578L86.0952 83.2239C85.9146 83.6085 85.6465 83.8998 85.2911 84.0979C84.9415 84.2902 84.586 84.3864 84.2248 84.3864C83.8052 84.3864 83.4352 84.264 83.1148 84.0193C82.8001 83.7687 82.602 83.4774 82.5204 83.1452C82.4447 82.8131 82.4068 82.2304 82.4068 81.3972V77.3417H81.3667V76.9396C81.8445 76.928 82.2728 76.7269 82.6515 76.3365C83.0303 75.9461 83.2721 75.3984 83.377 74.6934H83.6567V76.9396H85.8155V77.3417Z" fill="#191919"/>
<path d="M79.348 76.9395V81.633C79.348 82.4138 79.3596 82.9033 79.3829 83.1014C79.4062 83.2995 79.4907 83.4481 79.6364 83.5471C79.7879 83.6462 80.0559 83.6957 80.4405 83.6957V84.0978C79.5548 84.1094 78.908 84.2026 78.5002 84.3775H78.3953C78.2088 84.057 78.1098 83.5034 78.0981 82.7168C77.7427 83.2703 77.3348 83.687 76.8745 83.9667C76.42 84.2463 75.9159 84.3862 75.3624 84.3862C74.8846 84.3862 74.4621 84.2784 74.095 84.0628C73.7279 83.8414 73.4745 83.5733 73.3346 83.2587C73.2006 82.944 73.1336 82.4692 73.1336 81.834V79.3955C73.1336 78.5681 73.119 78.064 73.0899 77.8834C73.0608 77.6969 72.9675 77.56 72.8102 77.4726C72.6587 77.3852 72.3761 77.3415 71.9624 77.3415V76.9395H74.3922V81.9039C74.3922 82.3934 74.4213 82.7488 74.4796 82.9703C74.5379 83.1917 74.6865 83.3869 74.9254 83.5559C75.1643 83.719 75.441 83.8006 75.7557 83.8006C76.2044 83.8006 76.6326 83.6549 77.0405 83.3636C77.4484 83.0664 77.7252 82.7547 77.8709 82.4284C78.0223 82.0962 78.0981 81.6243 78.0981 81.0124V79.3955C78.0981 78.6147 78.0894 78.1398 78.0719 77.9708C78.0544 77.8018 77.9786 77.6562 77.8446 77.5338C77.7164 77.4056 77.4455 77.3415 77.0318 77.3415H76.8482V76.9395H79.348Z" fill="#191919"/>
<path d="M71.0609 82.7871H71.3843C71.3319 83.7835 70.8424 84.2817 69.916 84.2817C69.5197 84.2817 69.2051 84.1768 68.972 83.967C68.7448 83.7572 68.5962 83.4455 68.5263 83.0318C67.9436 83.4455 67.4104 83.7572 66.9268 83.967C66.449 84.1768 66.0207 84.2817 65.642 84.2817C65.1583 84.2817 64.7417 84.1418 64.3921 83.8621C64.0425 83.5824 63.8677 83.2124 63.8677 82.7521C63.8677 82.1519 64.159 81.6275 64.7417 81.1788C65.3302 80.7302 66.1402 80.2932 67.1715 79.8678L68.5263 79.3172V78.9675C68.5263 78.4723 68.4942 78.1139 68.4301 77.8925C68.366 77.6711 68.2 77.473 67.9319 77.2981C67.6639 77.1233 67.3114 77.0359 66.8743 77.0359C66.0003 77.0359 65.5138 77.3273 65.4147 77.91C65.3215 78.5043 65.0768 78.8015 64.6805 78.8015C64.3251 78.8015 64.1474 78.6325 64.1474 78.2945C64.1474 77.9624 64.3834 77.607 64.8553 77.2282C65.3273 76.8437 66.0615 76.6514 67.0579 76.6514C67.7979 76.6514 68.3718 76.7679 68.7797 77.001C69.1876 77.2341 69.4556 77.4992 69.5838 77.7963C69.7179 78.0935 69.7849 78.548 69.7849 79.1598V82.0529C69.7849 82.7288 69.8198 83.1629 69.8897 83.3552C69.9597 83.5475 70.1112 83.6436 70.3442 83.6436C70.7288 83.6436 70.9677 83.3581 71.0609 82.7871ZM68.5263 79.728L67.5736 80.1125C66.0702 80.7244 65.3186 81.4935 65.3186 82.42C65.3186 82.7871 65.4147 83.0842 65.607 83.3115C65.7993 83.5329 66.0498 83.6436 66.3587 83.6436C66.6325 83.6436 66.9501 83.5533 67.3114 83.3727C67.6726 83.192 68.0776 82.9211 68.5263 82.5598V79.728Z" fill="#191919"/>
<path d="M62.4961 79.3609H57.5054C57.4821 79.7046 57.4704 79.961 57.4704 80.13C57.4704 81.3886 57.6656 82.3355 58.056 82.9706C58.4522 83.5999 59.0408 83.9146 59.8216 83.9146C60.8821 83.9146 61.6337 83.4397 62.0766 82.4899H62.4961C62.3096 83.0842 61.9396 83.5504 61.3861 83.8883C60.8325 84.2205 60.2294 84.3865 59.5768 84.3865C58.9708 84.3865 58.3969 84.235 57.855 83.932C57.3189 83.6232 56.879 83.1891 56.5352 82.6297C56.1914 82.0704 56.0195 81.3915 56.0195 80.5932C56.0195 79.4628 56.3517 78.5247 57.0159 77.7789C57.6802 77.0272 58.5105 76.6514 59.5069 76.6514C60.445 76.6514 61.1705 76.9369 61.6832 77.5079C62.196 78.079 62.467 78.6966 62.4961 79.3609ZM60.9665 79.0113C60.984 78.8772 60.9928 78.7578 60.9928 78.6529C60.9928 78.1401 60.8413 77.7439 60.5383 77.4642C60.2411 77.1787 59.874 77.0359 59.437 77.0359C58.3765 77.0359 57.7443 77.6944 57.5403 79.0113H60.9665Z" fill="#191919"/>
<path d="M50.5657 77.7168C51.9117 77.8159 52.911 78.1509 53.5636 78.722C54.2163 79.293 54.5426 80.0068 54.5426 80.8634C54.5426 81.6092 54.3211 82.2531 53.8783 82.795C53.4355 83.331 52.8673 83.6836 52.1739 83.8525C51.4864 84.0157 50.5628 84.0973 49.4033 84.0973H44.7534V83.6952H45.2079C45.7149 83.6952 46.0645 83.6311 46.2568 83.5029C46.4549 83.3747 46.5801 83.1766 46.6326 82.9086C46.685 82.6347 46.7112 82.0025 46.7112 81.0119V75.2433C46.7112 74.2819 46.6821 73.6613 46.6238 73.3817C46.5714 73.102 46.4549 72.9097 46.2742 72.8048C46.0994 72.6999 45.7119 72.6475 45.1118 72.6475H44.8845V72.2454L46.8336 72.193L49.0536 72.123C52.2934 72.123 53.9133 73.0553 53.9133 74.9199C53.9133 75.6891 53.6336 76.3067 53.0742 76.7729C52.5206 77.239 51.6845 77.5537 50.5657 77.7168ZM48.4243 77.5508C48.57 77.5566 48.6924 77.5595 48.7914 77.5595C50.05 77.5595 50.9095 77.3614 51.3698 76.9652C51.8302 76.5689 52.0603 75.928 52.0603 75.0423C52.0603 74.4247 51.97 73.9469 51.7894 73.6089C51.6087 73.2709 51.3378 73.0116 50.9765 72.831C50.6153 72.6446 49.9976 72.5513 49.1236 72.5513C48.8963 72.5513 48.6632 72.5601 48.4243 72.5775V77.5508ZM48.4243 77.9791V80.6186C48.4243 81.7432 48.4447 82.457 48.4855 82.76C48.5263 83.063 48.6341 83.2932 48.8089 83.4505C48.9896 83.6078 49.3421 83.6865 49.8665 83.6865C50.7988 83.6865 51.498 83.4476 51.9642 82.9698C52.4303 82.492 52.6634 81.7753 52.6634 80.8197C52.6634 79.8407 52.3983 79.1211 51.868 78.6608C51.3436 78.1946 50.4171 77.9616 49.0886 77.9616C48.8788 77.9616 48.6574 77.9674 48.4243 77.9791Z" fill="#191919"/>
<path d="M39.352 82.7871H39.6754C39.6229 83.7835 39.1335 84.2817 38.207 84.2817C37.8108 84.2817 37.4961 84.1768 37.263 83.967C37.0358 83.7572 36.8872 83.4455 36.8173 83.0318C36.2346 83.4455 35.7014 83.7572 35.2178 83.967C34.74 84.1768 34.3117 84.2817 33.933 84.2817C33.4493 84.2817 33.0327 84.1418 32.6831 83.8621C32.3335 83.5824 32.1587 83.2124 32.1587 82.7521C32.1587 82.1519 32.45 81.6275 33.0327 81.1788C33.6212 80.7302 34.4312 80.2932 35.4625 79.8678L36.8173 79.3172V78.9675C36.8173 78.4723 36.7852 78.1139 36.7211 77.8925C36.657 77.6711 36.491 77.473 36.2229 77.2981C35.9549 77.1233 35.6024 77.0359 35.1654 77.0359C34.2913 77.0359 33.8048 77.3273 33.7057 77.91C33.6125 78.5043 33.3678 78.8015 32.9715 78.8015C32.6161 78.8015 32.4384 78.6325 32.4384 78.2945C32.4384 77.9624 32.6744 77.607 33.1463 77.2282C33.6183 76.8437 34.3525 76.6514 35.3489 76.6514C36.0889 76.6514 36.6629 76.7679 37.0707 77.001C37.4786 77.2341 37.7467 77.4992 37.8749 77.7963C38.0089 78.0935 38.0759 78.548 38.0759 79.1598V82.0529C38.0759 82.7288 38.1108 83.1629 38.1808 83.3552C38.2507 83.5475 38.4022 83.6436 38.6353 83.6436C39.0198 83.6436 39.2587 83.3581 39.352 82.7871ZM36.8173 79.728L35.8646 80.1125C34.3612 80.7244 33.6096 81.4935 33.6096 82.42C33.6096 82.7871 33.7057 83.0842 33.898 83.3115C34.0903 83.5329 34.3409 83.6436 34.6497 83.6436C34.9235 83.6436 35.2411 83.5533 35.6024 83.3727C35.9636 83.192 36.3686 82.9211 36.8173 82.5598V79.728Z" fill="#191919"/>
<path d="M29.9115 72.0801V81.642C29.9115 82.4053 29.9202 82.886 29.9377 83.0841C29.961 83.2822 30.0455 83.4337 30.1912 83.5386C30.3369 83.6435 30.5962 83.6959 30.9691 83.6959H31.1788V84.098H27.3506V83.6959H27.5953C27.9449 83.6959 28.1926 83.6493 28.3382 83.5561C28.4897 83.457 28.5801 83.3201 28.6092 83.1453C28.6383 82.9705 28.6529 82.4694 28.6529 81.642V74.5623C28.6529 73.8107 28.5859 73.3387 28.4519 73.1464C28.3178 72.9483 27.9915 72.8492 27.473 72.8492V72.4472C27.8284 72.4472 28.245 72.4064 28.7228 72.3248C29.2064 72.2432 29.5386 72.1617 29.7192 72.0801H29.9115Z" fill="#191919"/>
<path d="M23.9786 78.4781C24.1767 77.9595 24.4972 77.5254 24.9401 77.1758C25.3887 76.8262 25.8258 76.6514 26.2511 76.6514C26.6357 76.6514 26.9387 76.7708 27.1601 77.0097C27.3815 77.2486 27.4922 77.4934 27.4922 77.7439C27.4922 77.9129 27.434 78.0586 27.3174 78.1809C27.2067 78.3033 27.0698 78.3645 26.9066 78.3645C26.6153 78.3645 26.3939 78.1489 26.2424 77.7177C26.1375 77.4263 25.9802 77.2807 25.7704 77.2807C25.5198 77.2807 25.2198 77.4526 24.8701 77.7963C24.5205 78.1343 24.2962 78.4868 24.1971 78.8539C24.0981 79.221 24.0486 79.725 24.0486 80.366V81.6421C24.0486 82.4054 24.0573 82.8861 24.0748 83.0842C24.0981 83.2823 24.1826 83.4338 24.3282 83.5387C24.4739 83.6436 24.7332 83.6961 25.1061 83.6961H25.3509V84.0981H21.5488V83.6961H21.7324C22.082 83.6961 22.3296 83.6494 22.4753 83.5562C22.6268 83.4572 22.7171 83.3202 22.7463 83.1454C22.7754 82.9706 22.79 82.4695 22.79 81.6421V79.6231C22.79 78.8539 22.7783 78.3732 22.755 78.1809C22.7375 77.9828 22.6559 77.8313 22.5103 77.7264C22.3646 77.6157 22.1053 77.5604 21.7324 77.5604H21.5488V77.167C22.0966 77.1029 22.8133 76.9311 23.6989 76.6514C23.8679 77.1117 23.9612 77.7206 23.9786 78.4781Z" fill="#191919"/>
<path d="M20.4897 82.7871H20.8131C20.7606 83.7835 20.2712 84.2817 19.3447 84.2817C18.9485 84.2817 18.6338 84.1768 18.4007 83.967C18.1735 83.7572 18.0249 83.4455 17.955 83.0318C17.3723 83.4455 16.8391 83.7572 16.3555 83.967C15.8777 84.1768 15.4494 84.2817 15.0707 84.2817C14.587 84.2817 14.1704 84.1418 13.8208 83.8621C13.4712 83.5824 13.2964 83.2124 13.2964 82.7521C13.2964 82.1519 13.5877 81.6275 14.1704 81.1788C14.7589 80.7302 15.5689 80.2932 16.6002 79.8678L17.955 79.3172V78.9675C17.955 78.4723 17.9229 78.1139 17.8588 77.8925C17.7947 77.6711 17.6287 77.473 17.3606 77.2981C17.0926 77.1233 16.7401 77.0359 16.3031 77.0359C15.429 77.0359 14.9425 77.3273 14.8434 77.91C14.7502 78.5043 14.5055 78.8015 14.1092 78.8015C13.7538 78.8015 13.5761 78.6325 13.5761 78.2945C13.5761 77.9624 13.8121 77.607 14.284 77.2282C14.756 76.8437 15.4902 76.6514 16.4866 76.6514C17.2266 76.6514 17.8006 76.7679 18.2084 77.001C18.6163 77.2341 18.8844 77.4992 19.0125 77.7963C19.1466 78.0935 19.2136 78.548 19.2136 79.1598V82.0529C19.2136 82.7288 19.2485 83.1629 19.3185 83.3552C19.3884 83.5475 19.5399 83.6436 19.773 83.6436C20.1575 83.6436 20.3964 83.3581 20.4897 82.7871ZM17.955 79.728L17.0023 80.1125C15.4989 80.7244 14.7473 81.4935 14.7473 82.42C14.7473 82.7871 14.8434 83.0842 15.0357 83.3115C15.228 83.5329 15.4785 83.6436 15.7874 83.6436C16.0612 83.6436 16.3788 83.5533 16.7401 83.3727C17.1013 83.192 17.5063 82.9211 17.955 82.5598V79.728Z" fill="#191919"/>
<path d="M11.0509 79.6489H11.4267V83.8005H11.0509C10.946 83.3286 10.7567 82.9119 10.4828 82.5507C9.43979 83.7277 8.10835 84.3162 6.48848 84.3162C4.77538 84.3162 3.37401 83.7743 2.28439 82.6905C1.20059 81.6067 0.658691 80.1733 0.658691 78.3903C0.658691 77.2191 0.909247 76.1178 1.41036 75.0865C1.91147 74.0493 2.61069 73.2801 3.50803 72.779C4.40537 72.2779 5.39011 72.0273 6.46226 72.0273C7.34794 72.0273 8.14913 72.2109 8.86584 72.578C9.58837 72.9392 10.1274 73.3413 10.4828 73.7841C10.7334 73.2889 10.8848 72.7761 10.9373 72.2459H11.3219L11.4267 76.7384H11.0509C10.7887 75.1418 10.2526 74.0318 9.4427 73.4083C8.63859 72.7848 7.7296 72.4731 6.71572 72.4731C5.4746 72.4731 4.48695 72.9771 3.75276 73.9852C3.0244 74.9932 2.66022 76.4354 2.66022 78.3116C2.66022 80.0888 3.05936 81.4523 3.85764 82.4021C4.65592 83.346 5.64941 83.818 6.83809 83.818C7.47322 83.818 8.12291 83.6636 8.78718 83.3548C9.45144 83.046 9.97586 82.5245 10.3604 81.7903C10.7508 81.0503 10.981 80.3365 11.0509 79.6489Z" fill="#191919"/>
</svg>
